/* XPM */
static char * 16_xpm[] = {
"16 16 35 1",
" 	c None",
".	c #C01826",
"+	c #B81724",
"@	c #BF1726",
"#	c #C21826",
"$	c #C11826",
"%	c #BF1826",
"&	c #BB1725",
"*	c #BE1726",
"=	c #B41623",
"-	c #BC1725",
";	c #C51926",
">	c #BA1724",
",	c #BD1825",
"'	c #C71827",
")	c #BA1725",
"!	c #B11623",
"~	c #C41826",
"{	c #C21827",
"]	c #B61624",
"^	c #B91725",
"/	c #BF1825",
"(	c #B71624",
"_	c #C01726",
":	c #B71724",
"<	c #BE1825",
"[	c #BC1625",
"}	c #BD1725",
"|	c #B51623",
"1	c #B01622",
"2	c #BB1724",
"3	c #B01521",
"4	c #B61623",
"5	c #C41927",
"6	c #AE1522",
"                ",
"                ",
"      .+@       ",
"      # $       ",
"       %&       ",
"  *=  - .  ;    ",
" >, ' )!+   ~ { ",
" .      -   ]^  ",
" /     &+   (+  ",
" -_( >:] < / #  ",
"   =)!)   ,     ",
" [+:!- &  )}    ",
"  |1|  234 ,    ",
"       56-      ",
"                ",
"                "};
