/* XPM */
static char * 128_xpm[] = {
"128 128 9 1",
" 	c None",
".	c #B01421",
"+	c #B11623",
"@	c #B11521",
"#	c #B11423",
"$	c #B11523",
"%	c #B11622",
"&	c #B01623",
"*	c #B01523",
"                                                                                                                                ",
"                                                                                                                                ",
"                                                                                                                                ",
"                                                      .++++++++++++++++++@                                                      ",
"                                                 .++++++++++#@@@@@@@++++++++++@                                                 ",
"                                              +++++++$                    $%++++++&                                             ",
"                                           +++++%                              &+++++*                                          ",
"                                        %++++*                                     +++++                                        ",
"                                      ++++.                                          *++++                                      ",
"                                    ++++                                                ++++                                    ",
"                                  ++++                                                    #+++                                  ",
"                                @+++                                                        ++++                                ",
"                               +++                                                            +++*                              ",
"                             #++@                        $@#++@$                                +++                             ",
"                            +++                       +++++++++++++                              +++                            ",
"                          &++@                      +++++++++++++++++                              +++                          ",
"                         +++                       +++++++++++++++++++                              +++                         ",
"                        +++                       +++++++++++++++++++++                              #++                        ",
"                       +++                       ++++++++++#@++++++++++#                              &++                       ",
"                      ++@                        ++++++++&     +++++++++                                ++                      ",
"                     ++&                        +++++++++       ++++++++$                                ++&                    ",
"                    ++                          ++++++++        ++++++++@                                 ++&                   ",
"                   ++                           ++++++++        @+++++++@                                  ++                   ",
"                  ++&                           ++++++++        .+++++++$                                   ++                  ",
"                 ++&                            ++++++++$       ++++++++                                     ++                 ",
"                ++%                             +++++++++       ++++++++                                      ++                ",
"               .++                              +++++++++      %+++++++                                       @++               ",
"               ++                               ++++++++++     +++++++                                         ++@              ",
"              ++                                *++++++++++   +++++++                                           ++              ",
"             ++&                                 +++++++++++    $$                                               ++             ",
"             ++                                  *++++++++++++                                                   @+#            ",
"            ++                                    +++++++++++++                                                   ++            ",
"           ++*                                     +++++++++++++&                                                  ++           ",
"           ++                                       ++++++++++++++                                                 %+&          ",
"          ++                                         ++++++++++++++                                                 ++          ",
"          ++                                          .+++++++++++++&                                               $+#         ",
"         ++                                             +++++++++++++&                                               ++         ",
"         +#                                              +++++++++++++                                                +#        ",
"        ++                                       ++++++*   ++++++++++++                                               ++        ",
"        ++                                     %+++++++     +++++++++++$                                              $+@       ",
"       ++              $@@@@@                 @+++++++       %++++++++++                                               ++       ",
"       ++           ++++++++++++              ++++++++        ++++++++++                                       @+      @+       ",
"      .+         &++++++++++++++++           #++++++++         +++++++++                 .++++++               +++@     ++      ",
"      ++        +++++++++++++++++++          ++++++++@         +++++++++               *+++++++++              ++++%    ++      ",
"      ++      *+++++++++++++++++++++         ++++++++#         @++++++++                ++++++++++             +++++     +&     ",
"     %+      %+++++++++++@#+++++++++         +++++++++         @++++++++                 +++++++++$           #++++++    ++     ",
"     ++     &++++++++++     +++++++++        +++++++++         ++++++++#                 *+++++++++           +++++++    ++     ",
"     ++     +++++++++&      *++++++++        ++++++++++       +++++++++                   +++++++++          ++++++++    $+     ",
"    *+     +++++++++%        ++++++++         ++++++++++@   .+++++++++#                    +++++++++        %+++++++%     ++    ",
"    ++    @+++++++++         ++++++++         %+++++++++++++++++++++++                     +++++++++        ++++++++      ++    ",
"    ++    +++++++++          ++++++++          ++++++++++++++++++++++                       +++++++++      +++++++++      #+    ",
"    ++   #+++++++++         $++++++++           %+++++++++++++++++++                        +++++++++     +++++++++        +$   ",
"    +$   +++++++++          +++++++++             ++++++++++++++++                          &++++++++    +++++++++         +#   ",
"   @+    +++++++++          ++++++++@               %+++++++++++                             +++++++++  +++++++++          ++   ",
"   ++   +++++++++*          ++++++++                                                         #++++++++ +++++++++           ++   ",
"   ++   +++++++++          ++++++++                                                           +++++++++++++++++            ++   ",
"   ++   +++++++++         %+++++++&                              ++                           ++++++++++++++++             @+   ",
"   ++  *+++++++++         +++++++                               ++++                          $++++++++++++++              $+   ",
"   +@  +++++++++@                                             %+++++%                          +++++++++++++                +$  ",
"   +$  +++++++++$                                            ++++++++                          #+++++++++++                 +@  ",
"   +$  +++++++++                                            ++++++++++                          ++++++++++                  ++  ",
"  $+   +++++++++                                          @++++++++++++                         +++++++++                   ++  ",
"  $+   +++++++++                                         ++++++++++++++&                       ++++++++++                   ++  ",
"  $+   +++++++++                                        ++++++++++++++++                      +++++++++++&                  ++  ",
"  *+   +++++++++                                      .++++++++++++++++++                    +++++++++++++                  ++  ",
"  $+   +++++++++                                     +++++++++++++++++++++                  ++++++++++++++                  ++  ",
"  $+   +++++++++$                                   ++++++++++++++++++++++                 ++++++++++++++++                 ++  ",
"  $+   +++++++++@                                 %++++++++++++++++++++++++               +++++++++++++++++                 ++  ",
"   +$  .+++++++++                                +++++++++++++++++++++++++++             +++++++++ +++++++++                +%  ",
"   +*   +++++++++               +++            *++++++++++++++++++++++++++++@           +++++++++@ .++++++++                +@  ",
"   +@   +++++++++#             +++++          ++++++++++++++++++%++++++++++++          @+++++++++   +++++++++               +$  ",
"   ++   ++++++++++            ++++++         +++++++++++++++++++  ++++++++++++         +++++++++    @++++++++              $+   ",
"   ++    ++++++++++          ++++++        ++++++++++++++++++++    ++++++++++++       +++++++++$     +++++++++             @+   ",
"   ++    +++++++++++       +++++++.       ++++++++++++++++++++      +++++++++++*      +++++++++      .++++++++             ++   ",
"   ++     ++++++++++++%&@+++++++++      +++++++++++++++++++++       @+++++++++++     %++++++++        +++++++++            ++   ",
"   &+     @++++++++++++++++++++++      +++++++++++++++++++++         ++++++++++++    ++++++++#         ++++++++#           ++   ",
"    +&     +++++++++++++++++++++     ++++++++++++++++++++++           +++++++++++#   ++++++++          +++++++++           +@   ",
"    ++      %+++++++++++++++++%    *++++++++++++++++++++++             +++++++++++   +++++++@           +++++++++         *+    ",
"    ++        +++++++++++++++     +++++++++++++++++++++++$              +++++++++++   ++++++             +++++++++        ++    ",
"    ++         &+++++++++++     #+++++++++++++++++++++++.               *+++++++++++  ++++++             &++++++++@       ++    ",
"     +*           $@@@@$      *++++++++++++++++++++++++%                 %++++++++++.  ++++                ++++++++       +#    ",
"     ++                      ++++++++++++++++++++++++++                   +++++++++++   +++                 ++++++++     &+     ",
"     ++                    +++++++++++++++++++++++++++                     +++++++++++    %                   $@@@$      ++     ",
"     &+                  ++++++++++++++++++++++++++++                       +++++++++++                                  ++     ",
"      ++               #++++++++++++++++++++++++++++                         ++++++++++$                                &+      ",
"      ++             @+++++++++++++++++++++++++++++                          &++++++++++                                ++      ",
"      $+&          @++++++++++++++++++++++++++++++                            +++++++++++                               ++      ",
"       ++        #+++++++++++++++++++++++++++++++                              ++++++++++%                             ++       ",
"       #+      +++++++++++++++++++++++++++++++++&                               ++++++++++                             ++       ",
"        ++   ++++++++++++++++++++++++++++++++++@                                 ++++++++++                           @+$       ",
"        ++.+++++++++++++++++++++++++++++++++++%                                   ++++++++++                          ++        ",
"         +++++++++++++++++++++++++++++++++++++       +++++++++++++ @+++++++++++   %+++++++++&                        &+&        ",
"         ++++++++++++++++++++++++++++++++++++        +++++++++++++ @+++++++++++    ++++++++++                        ++         ",
"          ++++++++++++++++++++++++++++++++++         +++++++++++++ @+++++++++++     ++++++++++                      @+&         ",
"          +++++++++++++++++++++++++++++++++          +++++++++++++ @+++++++++++      ++++++++++                     ++          ",
"           +++++++++++++++++++++++++++++++           +++++++++++++ @+++++++++++       +++++++++                    ++           ",
"           .+++++++++++++++++++++++++++++            +++++++++++++ @+++++++++++       &+++++++++                   ++           ",
"            ++++++++++++++++++++++++++++             +++++++++++++ @+++++++++++        %+++++++++                 ++            ",
"             ++++++++++++++++++++++++++&             +++++++++++++ @+++++++++++         +++++++++%               ++*            ",
"             @++                                     @@@@@@@@@@@@@ *@@@@@@@@@@@                                 $++             ",
"              ++$                                                                                               ++              ",
"               ++                                    +++++++++++++ @+++++++++++                                ++               ",
"                ++                                   +++++++++++++ @+++++++++++                               ++%               ",
"                .++                                  +++++++++++++ @+++++++++++                              %++                ",
"                 +++                                 +++++++++++++ @+++++++++++                             &++                 ",
"                  +++                                +++++++++++++ @+++++++++++                            $++                  ",
"                   ++%                               +++++++++++++ @+++++++++++                            ++                   ",
"                    ++%                              +++++++++++++ @+++++++++++                           ++                    ",
"                     +++                             +++++++++++++ @+++++++++++                         &++                     ",
"                      +++                            @@@@@@@@@@@@@ *@@@@@@@@@@@                        %++                      ",
"                       +++                                                                            +++                       ",
"                        %++                                                                          +++                        ",
"                         $++@                                                                       ++%                         ",
"                           +++                                                                    #++$                          ",
"                            +++$                                                                 +++                            ",
"                              +++                                                              #++@                             ",
"                               +++#                                                          *+++                               ",
"                                 +++&                                                       +++$                                ",
"                                  $+++&                                                   +++%                                  ",
"                                    &+++#                                              &+++#                                    ",
"                                      *++++                                          ++++@                                      ",
"                                         +++++                                    #++++$                                        ",
"                                           &+++++@                            &+++++%                                           ",
"                                              *+++++++@                  &+++++++.                                              ",
"                                                  &++++++++++++++++++++++++++@                                                  ",
"                                                       $@++++++++++++++@$                                                       ",
"                                                                                                                                ",
"                                                                                                                                "};
