/* XPM */
static char * 32_xpm[] = {
"32 32 91 1",
" 	c None",
".	c #B01722",
"+	c #B01522",
"@	c #B01623",
"#	c #B41624",
"$	c #BE1826",
"%	c #B91725",
"&	c #C01826",
"*	c #B21622",
"=	c #AF1623",
"-	c #D31A2A",
";	c #B11423",
">	c #B01523",
",	c #B01624",
"'	c #B11623",
")	c #CD1928",
"!	c #D91B2B",
"~	c #C91928",
"{	c #B41623",
"]	c #B21623",
"^	c #B01622",
"/	c #C71927",
"(	c #BB1725",
"_	c #B11523",
":	c #BE1825",
"<	c #C61927",
"[	c #B71723",
"}	c #B91623",
"|	c #B81724",
"1	c #B71623",
"2	c #C51927",
"3	c #B71624",
"4	c #C81928",
"5	c #B51624",
"6	c #BD1725",
"7	c #D11A29",
"8	c #AF1523",
"9	c #CD1A29",
"0	c #CD1A28",
"a	c #B51623",
"b	c #CF1A29",
"c	c #D01929",
"d	c #C11826",
"e	c #B61624",
"f	c #D41A2A",
"g	c #B11622",
"h	c #D71A2A",
"i	c #B81624",
"j	c #B31623",
"k	c #CC1928",
"l	c #B11521",
"m	c #CB1928",
"n	c #BA1724",
"o	c #B31523",
"p	c #C81927",
"q	c #B31622",
"r	c #C41827",
"s	c #B71724",
"t	c #BA1725",
"u	c #AE1622",
"v	c #CA1928",
"w	c #B81623",
"x	c #B61724",
"y	c #C31827",
"z	c #B51724",
"A	c #B61623",
"B	c #C21826",
"C	c #B51723",
"D	c #C51827",
"E	c #BF1826",
"F	c #D01A29",
"G	c #AF1621",
"H	c #AF1622",
"I	c #B31624",
"J	c #AE1523",
"K	c #C21827",
"L	c #BB1625",
"M	c #B91724",
"N	c #BE1725",
"O	c #B61723",
"P	c #B41523",
"Q	c #BB1624",
"R	c #B21521",
"S	c #B21621",
"T	c #B91624",
"U	c #B11522",
"V	c #CC1A29",
"W	c #C41926",
"X	c #C91927",
"Y	c #B01621",
"Z	c #B21522",
"                                ",
"                                ",
"          .           .         ",
"        +               @       ",
"             #$%&*       @      ",
"            =-; >-,             ",
"            ')  '!              ",
"             ~{ ]{          ^   ",
"   ^         >/(             _  ",
"              #:<+              ",
"  _   [}    |{  12              ",
"    34'56   7^  89    ^0=   a   ",
"   >b^  c_  %d>'$e     ]/  =f_  ",
"   /]  gh'   ij#[      8kl ~e   ",
"  gm@  {n               oj&i    ",
"  >p           {4q      ^r5     ",
"  _/          sdjd@     t&u     ",
"  ^v+        w(5xs$    <q_y     ",
"   ~{  z&  A&5%] gBC  A&  m+    ",
"   ^/D(i  eE'si   e2> FG  >-u   ",
"     i  xEs@5(     (dHj    t(   ",
"      eA6''jE       r|          ",
"  8 IaEj'']dJ       >v#         ",
"   D&xj##{K+  $|>@L^ 'bl        ",
"   @ng^^^M]   dn^+N+  Oy     8  ",
"    P         QARSTg        U   ",
"              VWg>X3       _    ",
"              6sY_nU      8     ",
"       >                 Z      ",
"        ^               +       ",
"          +           _         ",
"                                "};
