/* XPM */
static char * 64_xpm[] = {
"64 64 105 2",
"  	c None",
". 	c #B31623",
"+ 	c #B11623",
"@ 	c #B31523",
"# 	c #B21523",
"$ 	c #B21623",
"% 	c #B11622",
"& 	c #B01522",
"* 	c #B21522",
"= 	c #AF1523",
"- 	c #B31723",
"; 	c #B41523",
"> 	c #B41622",
", 	c #B61623",
"' 	c #B71624",
") 	c #B71723",
"! 	c #B21622",
"~ 	c #B51623",
"{ 	c #B61724",
"] 	c #BA1724",
"^ 	c #B81724",
"/ 	c #B91624",
"( 	c #B91623",
"_ 	c #BA1624",
": 	c #B91724",
"< 	c #B71523",
"[ 	c #B61624",
"} 	c #B71623",
"| 	c #B81624",
"1 	c #B61723",
"2 	c #B41623",
"3 	c #B11523",
"4 	c #C11826",
"5 	c #B91725",
"6 	c #BF1826",
"7 	c #BC1725",
"8 	c #B71724",
"9 	c #B51624",
"0 	c #B41723",
"a 	c #B01523",
"b 	c #B01621",
"c 	c #B01623",
"d 	c #BA1725",
"e 	c #B41524",
"f 	c #BC1825",
"g 	c #B81725",
"h 	c #C11827",
"i 	c #B11521",
"j 	c #AF1621",
"k 	c #B11522",
"l 	c #BE1826",
"m 	c #AE1622",
"n 	c #C21827",
"o 	c #BB1725",
"p 	c #C51827",
"q 	c #C21826",
"r 	c #B31622",
"s 	c #B01622",
"t 	c #BD1725",
"u 	c #C01826",
"v 	c #B01422",
"w 	c #AF1522",
"x 	c #C41827",
"y 	c #C41927",
"z 	c #B81723",
"A 	c #BE1825",
"B 	c #B41624",
"C 	c #CB1928",
"D 	c #C51927",
"E 	c #AF1521",
"F 	c #BE1725",
"G 	c #AF1623",
"H 	c #BD1825",
"I 	c #C31827",
"J 	c #BD1726",
"K 	c #B11524",
"L 	c #CA1928",
"M 	c #C61927",
"N 	c #AF1622",
"O 	c #AE1522",
"P 	c #B51724",
"Q 	c #B11621",
"R 	c #B51523",
"S 	c #B41724",
"T 	c #BD1826",
"U 	c #C81928",
"V 	c #AF1422",
"W 	c #BB1726",
"X 	c #BE1726",
"Y 	c #B41522",
"Z 	c #AF1722",
"` 	c #B31522",
" .	c #CC1A29",
"..	c #CD1A29",
"+.	c #AE1623",
"@.	c #C21927",
"#.	c #B91625",
"$.	c #C31927",
"%.	c #C91928",
"&.	c #B31524",
"*.	c #B31722",
"=.	c #B81625",
"-.	c #B81623",
";.	c #B21624",
">.	c #B51524",
"                                                                                                                                ",
"                                                                                                                                ",
"                                                  . + @ # $ % % & * = # % - ; >                                                 ",
"                                          , ' ) ;                             ! ; ~ {                                           ",
"                                      ] ^ '                                           ' / (                                     ",
"                                  ] ]                                                     _ :                                   ",
"                              < [ :                                                           : }                               ",
"                            ' |                       1 2 3 + 3 @ }                               | )                           ",
"                          ~ [                       | 4 5 6 4 7 8 4 |                               [ 9                         ",
"                        0                         [ : + { a b + 5 c d 2                               e .                       ",
"                      $                         3 4 c f $       @ g c h i                                 @                     ",
"                    +                           c 5 + 6         j 6 + 6 b                                   +                   ",
"                  3                             k 8 + l m       & l + n                                     3 3                 ",
"                &                               3 o + 8 2       9 o p a                                       a #               ",
"              k                                 = q + c 7 2   % ] r [                                           +               ",
"            s c                                   $ d c c t 9                                                     %             ",
"            +                                       ^ d c c d 8 @                                                   &           ",
"          % s                                         8 6 + c 2 4 [                                                 s           ",
"          a                                             [ u 9 c + u 9                                                 v         ",
"        c                                         8 _ k     , ^ c c 4 s                                               3         ",
"        a               . i 2                 w x t y         ~ { + . '                                                 s       ",
"      c 3         z 2 6 4 4 6 6 '             + { 2 $           o + + 6                   ~ 9 ]                 ' b     c       ",
"      s         g A B 7 + + 8 c 7 B           7 + B k           w 9 + t                 s C { 7 o               4 D     a 3     ",
"      &     E q 9 $ 7 &     % 5 c h %         7 $ + f           8 $ 9 +                   ; 8 c l w           * 5 F s     k     ",
"    + 3     o B c 6 3         6 + : +         s A c . . %   G @ 9 + y c                     u + . 8         G 6 c h 3     3     ",
"    &     = 7 c 5 !           l + : s           } 4 B . H l l 9 8 I +                       3 8 + 6 c       H $ 8 2       k     ",
"    &     J $ + l           % l + l %             [ 2 7 6 6 6 5 '                           j u + { &     8 9 2 H           K   ",
"    s   & 6 + { s           3 { { u                                                           . B + 2 a % 8 2 6             3   ",
"    c   & ^ + 7 a         ! L 6 ' m                               9                           w l + + d B 9 7               a   ",
"    3   + B + 6 k                                             r H M N                           d $ + + { ^                 a   ",
"  & s   { $ + l                                             ~ 4 . . 7                           O ^ + B '                   %   ",
"  N     8 $ + l                                           } A + + + ^ 2                         | . + d m                   k   ",
"  s     8 $ + l                                       2 d ^ c + + + c 6 3                     f 9 + + $ :                   k   ",
"  s     9 . + l                                     ~ u . + + + + + + + u                   7 P + d $ c l w                 k   ",
"  + Q   & P + t w                                 [ A + + + + + o B c + P ^               8 { + 9 c + $ . ~                 %   ",
"    %   k o + B ~               o o           R J 8 c + + + + d a % { + c o #           ~ 5 c 6 +   k 7 c 6 w               a   ",
"    3     4 + c o 2           [ I +         , u $ + + + + + u $     l . + c u a       % 4 c ^ ;       J $ . [               3   ",
"    +     s F c c o ! % 3 3 7 F ~       S o 5 c + + + + c u .       w 4 + + $ l       3 B + 6         w l c t s             %   ",
"    k       [ 6 $ c 8 l l o u '       ' u . + + + + + c H e           $ u + + 8 9     d $ o s           , { + 6             a   ",
"    +         ' o u l 6 6 9 '     ) t 5 c + + + + + c o 9               . 7 c c T $   3 H H               n P P ,         k     ",
"    = &             % k         9 6 $ + + + + + + c 5 [                   9 ^ c + 4 m   o N                 8 u U ~       k     ",
"      a                     [ u P c + + + + + + c 8 8                       5 9 + 2 o                           V W       3     ",
"      +                 B X : + + + + + + + + + 9 5                           6 $ c 5 ;                                 k s     ",
"      % 3           Y 7 o + + + + + + + + + + 2 l                             + 4 + c 6 c                               k       ",
"        &       ~ 7 o $ + + + + + + + + + + $ u Z                               . 6 c + u                               k       ",
"        % 8 & l d $ + + + + + + + + + + + + 4 k                                   B o c P [                           a         ",
"          l d + + + + + + + + + + + + + + u `          .l l l 6 6   % I l l ..c     } 8 c o .                         w         ",
"          +.u c + + + + + + + + + + + c 6 .           l + + + $ $   % 9 + + 6 c       7 2 c 4 G                     3           ",
"            2 ^ o t t t t t t t t t t p .             @.9 9 9 [ [   & #.9 9 $.&       w x l l %.                  & k           ",
"              H 3 c 3 3 3 3 3 3 3 3 k '               7 % % % % %   s 2 % % t a         % 8 = ^ c                 %             ",
"              = +                                                                                               s               ",
"                s                                     n B B B 9 9   3 #.B B I &                               # 3               ",
"                  %                                   6 $ $ $ . .   % [ $ $ u N                             % +                 ",
"                    &                                 @.9 9 9 [ [   & #.9 9 $.&                           &.3                   ",
"                      @                               7 3 3 3 # #   & ; 3 3 t k                         *.@                     ",
"                        .                                                                             2 .                       ",
"                          B R                                                                       9 2                         ",
"                            2 [                                                                 [ }                             ",
"                                _ '                                                           z |                               ",
"                                  } | }                                                   =.#.                                  ",
"                                      } / )                                         { -.[                                       ",
"                                            [ ~ &.;.                          >.~ ' ^                                           ",
"                                                  e ~ 3 # 3 3 + c c K % @ + ;.2                                                 ",
"                                                                                                                                "};
